<svg width="100%" viewBox="28 38 530 158" role="img" xmlns="http://www.w3.org/2000/svg">
<title>Firma Manuel Belgrano</title>
<style>
@import url('https://fonts.googleapis.com/css2?family=Pinyon+Script&display=swap');
.ink{fill:none;stroke:#0d0d0d;stroke-linecap:round;stroke-linejoin:round;}
.txt{font-family:'Pinyon Script',cursive;fill:#0d0d0d;}
</style>
<text x="210" y="75" class="txt" font-size="48">M.&#737; Belgrano</text>
<path class="ink" stroke-width="1.2" d="M500,90 C485,94 466,100 444,107"/>
<path class="ink" stroke-width="2.5" d="M444,107 C418,116 388,125 354,134"/>
<path class="ink" stroke-width="5"   d="M354,134 C318,143 280,152 242,159"/>
<path class="ink" stroke-width="8.5" d="M242,159 C210,165 178,170 148,172"/>
<path class="ink" stroke-width="10"  d="M148,172 C122,173 100,173 82,170"/>
<path class="ink" stroke-width="8"   d="M82,170 C64,166 52,160 44,153"/>
<path class="ink" stroke-width="4"   d="M44,153 C32,144 28,132 34,122 C40,112 54,108 66,114"/>
<path class="ink" stroke-width="2.5" d="M66,114 C78,120 82,132 74,142 C68,150 56,154 46,150"/>
<path class="ink" stroke-width="1.3" d="M44,153 C58,168 96,178 150,182 C204,186 264,184 320,177 C372,170 420,160 460,148 C484,140 502,132 514,124"/>
<path class="ink" stroke-width="2.2" d="M514,124 C524,118 534,112 540,107 C546,102 548,98 544,96 C540,94 532,97 522,103"/>
<path class="ink" stroke-width="1.1" d="M522,103 C534,97 544,93 549,93 C554,93 554,98 548,104 C542,110 530,118 516,125"/>
<path class="ink" stroke-width="0.85" d="M490,98 C450,112 398,128 340,144 C292,156 242,166 194,172 C154,177 116,178 86,174"/>
<path class="ink" stroke-width="0.6"  d="M504,102 C464,116 410,133 350,149 C300,162 248,172 200,177 C160,181 122,181 94,176"/>
<path class="ink" stroke-width="1.5"  d="M500,82 C502,88 502,94 500,100"/>
</svg>
