<svg width="100%" viewBox="50 44 360 110" role="img" xmlns="http://www.w3.org/2000/svg">
<title>Firma Mariano Moreno</title>
<style>
@import url('https://fonts.googleapis.com/css2?family=Pinyon+Script&display=swap');
.ink{fill:none;stroke:#0d0d0d;stroke-linecap:round;stroke-linejoin:round;}
.txt{font-family:'Pinyon Script',cursive;fill:#0d0d0d;}
</style>
<text x="55" y="82" class="txt" font-size="44">Dr. Mariano Moreno</text>
<g transform="translate(-70,0)">
  <path class="ink" stroke-width="1.4" d="M462,80 C464,86 466,94 463,102"/>
  <path class="ink" stroke-width="1.5" d="M463,102 C468,96 478,94 485,100 C492,108 490,122 480,132 C468,142 452,144 440,137 C428,130 426,116 434,107 C440,100 450,98 458,103 C464,108 465,117 461,124"/>
  <path class="ink" stroke-width="1.3" d="M461,124 C457,130 450,134 444,134"/>
  <path class="ink" stroke-width="1.4" d="M444,134 C434,130 428,122 430,112 C432,103 440,98 449,100 C457,102 462,110 459,119 C457,126 451,130 444,130"/>
  <path class="ink" stroke-width="1.0" d="M444,130 C448,134 456,136 464,134 C470,132 473,128 470,125"/>
</g>
</svg>
